REM MD5 a162d4cad329f68e96de79313dc73392
FILE "Retrouve la Magie Disney sur PlayStation (France).bin" BINARY
  TRACK 01 MODE2/2352
    INDEX 01 00:00:00
  TRACK 02 AUDIO
    INDEX 00 20:41:41
    INDEX 01 20:43:41
  TRACK 03 AUDIO
    INDEX 00 21:46:39
    INDEX 01 21:48:39
REM LEADOUT 24:49:71
